<?xml version="1.0" encoding="utf-8"?>
<!-- Generator: Adobe Illustrator 17.1.0, SVG Export Plug-In . SVG Version: 6.00 Build 0)  -->
<!DOCTYPE svg PUBLIC "-//W3C//DTD SVG 1.1//EN" "http://www.w3.org/Graphics/SVG/1.1/DTD/svg11.dtd">
<svg version="1.1" id="Your_Icon" xmlns="http://www.w3.org/2000/svg" xmlns:xlink="http://www.w3.org/1999/xlink" x="0px" y="0px"
	 viewBox="14.3 4.8 74.1 59.3" enable-background="new 14.3 4.8 74.1 59.3" xml:space="preserve">
<path fill="#FFFFFF" d="M86.4,4.8H16.2c-1.1,0-2,0.9-2,2v9.1v46.2c0,1.1,0.9,2,2,2h70.1c1.1,0,2-0.9,2-2V15.9V6.8
	C88.3,5.7,87.4,4.8,86.4,4.8z M84.6,60.4H18V19.6h66.7V60.4z M18,15.9V8.5h66.7v7.4H18z"/>
<circle fill="#FFFFFF" cx="21.7" cy="12.2" r="1.5"/>
<circle fill="#FFFFFF" cx="27.2" cy="12.2" r="1.5"/>
<circle fill="#FFFFFF" cx="32.8" cy="12.2" r="1.5"/>
<path fill="#FFFFFF" d="M38,51.8c-0.6,0.6-1.5,0.6-2.1,0L25.8,41.6c-0.7-0.7-0.7-1.8,0-2.4L36,29c0.6-0.6,1.5-0.6,2.1,0l0.5,0.5
	c0.6,0.6,0.6,1.6,0,2.2l-8.6,8.6c0,0,0,0.1,0,0.2l8.7,8.7c0.6,0.6,0.6,1.5,0,2.1L38,51.8z"/>
<path fill="#FFFFFF" d="M64.6,51.8c0.6,0.6,1.5,0.6,2.1,0l10.2-10.2c0.7-0.7,0.7-1.8,0-2.4L66.7,29c-0.6-0.6-1.5-0.6-2.1,0l-0.5,0.5
	c-0.6,0.6-0.6,1.6,0,2.2l8.6,8.6c0,0,0,0.1,0,0.2l-8.7,8.7c-0.6,0.6-0.6,1.5,0,2.1L64.6,51.8z"/>
<path fill="#FFFFFF" d="M59.7,28.5c-0.1-0.4-0.3-0.7-0.7-0.9l-0.7-0.4c-0.7-0.4-1.6-0.2-2,0.5L43,51.2c-0.2,0.3-0.2,0.7-0.1,1.1
	c0.1,0.4,0.3,0.7,0.7,0.9l0.7,0.4c0.7,0.4,1.6,0.2,2-0.5l13.4-23.4C59.8,29.3,59.8,28.9,59.7,28.5z"/>
</svg>
