<?xml version="1.0" encoding="utf-8"?>
<!-- Generator: Adobe Illustrator 17.1.0, SVG Export Plug-In . SVG Version: 6.00 Build 0)  -->
<!DOCTYPE svg PUBLIC "-//W3C//DTD SVG 1.1//EN" "http://www.w3.org/Graphics/SVG/1.1/DTD/svg11.dtd">
<svg version="1.1" id="Layer_1" xmlns="http://www.w3.org/2000/svg" xmlns:xlink="http://www.w3.org/1999/xlink" x="0px" y="0px"
	 viewBox="14.8 18.3 72.8 32.2" enable-background="new 14.8 18.3 72.8 32.2" xml:space="preserve">
<g id="Captions">
</g>
<g id="Your_Icon">
	<path fill="#ffffff" d="M14.8,48.9c0,0.9,0.7,1.6,1.6,1.6h29.2c0.9,0,1.6-0.7,1.6-1.6v-1.5H14.8V48.9z"/>
	<path fill="#ffffff" d="M43.5,30.3c0-0.7-0.6-1.3-1.3-1.3H19.6c-0.7,0-1.3,0.6-1.3,1.3v15.9h25.1L43.5,30.3L43.5,30.3z M41,31.5
		v12.2H20.9V31.5H41z"/>
	<path fill="#ffffff" d="M58.6,45.5L58.4,45h-6.6l-0.1,0.5c-0.3,1.4-1,2.8-1.9,3.9L49,50.5h12.3l-0.9-1.1
		C59.5,48.3,58.9,46.9,58.6,45.5z"/>
	<path fill="#ffffff" d="M86.4,38.6h-4.7c-0.6,0-1.1,0.5-1.1,1.1v9.6c0,0.6,0.5,1.1,1.1,1.1h4.7c0.6,0,1.1-0.5,1.1-1.1v-9.6
		C87.6,39.1,87.1,38.6,86.4,38.6z M83.1,39.4H85c0.1,0,0.2,0.1,0.2,0.2c0,0.1-0.1,0.2-0.2,0.2h-1.9c-0.1,0-0.2-0.1-0.2-0.2
		C82.9,39.5,83,39.4,83.1,39.4z M84.1,49.8c-0.3,0-0.5-0.2-0.5-0.5c0-0.3,0.2-0.5,0.5-0.5c0.3,0,0.5,0.2,0.5,0.5
		C84.5,49.6,84.3,49.8,84.1,49.8z M86.6,48.3h-5.1v-7.7h5.1V48.3z"/>
	<path fill="#ffffff" d="M77.7,29.8H64c-0.7,0-1.3,0.6-1.3,1.3v18.1c0,0.7,0.6,1.3,1.3,1.3h13.7c0.7,0,1.3-0.6,1.3-1.3V31.1
		C79,30.4,78.4,29.8,77.7,29.8z M70.8,49.8c-0.3,0-0.5-0.2-0.5-0.5c0-0.3,0.2-0.5,0.5-0.5s0.5,0.2,0.5,0.5
		C71.4,49.5,71.1,49.8,70.8,49.8z M76.5,48H65.2V32.3h11.3L76.5,48L76.5,48z"/>
	<path fill="#ffffff" d="M39.5,20.8h31.9v7.8h2.5v-9c0-0.7-0.6-1.3-1.3-1.3H38.3c-0.7,0-1.3,0.6-1.3,1.3v8.1h2.5V20.8z"/>
	<rect x="44.7" y="41.2" fill="#ffffff" width="16.6" height="2.5"/>
</g>
</svg>
