<?xml version="1.0" encoding="utf-8"?>
<!-- Generator: Adobe Illustrator 17.1.0, SVG Export Plug-In . SVG Version: 6.00 Build 0)  -->
<!DOCTYPE svg PUBLIC "-//W3C//DTD SVG 1.1//EN" "http://www.w3.org/Graphics/SVG/1.1/DTD/svg11.dtd">
<svg version="1.1" id="Layer_1" xmlns="http://www.w3.org/2000/svg" xmlns:xlink="http://www.w3.org/1999/xlink" x="0px" y="0px"
	 viewBox="14.3 0 74.1 47.7" enable-background="new 14.3 0 74.1 47.7" xml:space="preserve">
<g>
	<path fill="#FFFFFF" d="M42.1,0C26.8,0,14.3,8.3,14.3,18.6c0,5.6,3.6,10.5,9.4,13.9c-1.2,2.3-3.6,5.1-8.6,9.1
		c-0.8,0.6-1.8,1.6,1.5,0.9c5.5-1.1,11.4-3.9,15.9-6.4c3,0.8,6.3,1.2,9.7,1.2c15.3,0,27.8-8.3,27.8-18.6S57.5,0,42.1,0z"/>
	<path fill="#FFFFFF" d="M87.7,46.8c-4.3-3.4-4.9-5.3-5.1-6.6c3-2.2,4.8-5.1,4.8-8.2C87.4,26,81.1,21,72.8,20
		c-0.7,8.5-8,15.5-18.5,18.6C57.5,41.8,63,44,69.4,44c2.7,0,5.3-0.4,7.6-1.1c2.4,1.6,6.6,4,10.3,4.7C89,47.9,88.2,47.1,87.7,46.8z"
		/>
</g>
</svg>
